<svg xmlns="http://www.w3.org/2000/svg" width="24" height="24" viewBox="0 0 24 24"><defs><style>.a{fill:none;}.b{fill:#5e6c84;}</style></defs><path class="a" d="M0,0H24V24H0Z"/><g transform="translate(0.8)"><path class="a" d="M0,0H22.4V22.4H0Z"/><path class="b" d="M15.533,11.533A2.333,2.333,0,1,0,13.2,9.2,2.326,2.326,0,0,0,15.533,11.533Zm-7-.933a2.8,2.8,0,1,0-2.8-2.8A2.788,2.788,0,0,0,8.533,10.6Zm7,2.8c-1.708,0-5.133.859-5.133,2.567v1.167a.936.936,0,0,0,.933.933h8.4a.936.936,0,0,0,.933-.933V15.967C20.667,14.259,17.241,13.4,15.533,13.4Zm-7-.933C6.359,12.467,2,13.559,2,15.733v1.4a.936.936,0,0,0,.933.933h5.6v-2.1a3.679,3.679,0,0,1,2.212-3.239A11.464,11.464,0,0,0,8.533,12.467Z" transform="translate(-0.133 -0.333)"/></g></svg>