<svg xmlns="http://www.w3.org/2000/svg" width="9.75" height="12" viewBox="0 0 9.75 12"><defs><style>.a{fill:#f44040;}</style></defs><path class="a" d="M5.249,5.678v7.5a.752.752,0,0,0,.75.75h6.75a.752.752,0,0,0,.75-.75v-7.5Zm2.25,6.75h-.75V7.178H7.5Zm1.5,0h-.75V7.178H9Zm1.5,0h-.75V7.178h.75Zm1.5,0h-.75V7.178H12Zm1.688-9H11.249V2.491a.564.564,0,0,0-.562-.562H8.061a.564.564,0,0,0-.563.562v.938H5.061a.564.564,0,0,0-.562.563v.938h9.75V3.991a.564.564,0,0,0-.562-.562Zm-3.188,0H8.249V2.687H10.5v.741Z" transform="translate(-4.499 -1.928)"/></svg>