<svg xmlns="http://www.w3.org/2000/svg" width="24" height="24" viewBox="0 0 24 24"><defs><style>.a{fill:none;}.b{fill:#ff5a50;}</style></defs><path class="a" d="M0,0H24V24H0Z"/><path class="b" d="M5.857,16.714a1.719,1.719,0,0,0,1.714,1.714h6.857a1.719,1.719,0,0,0,1.714-1.714V8.143a1.719,1.719,0,0,0-1.714-1.714H7.571A1.719,1.719,0,0,0,5.857,8.143ZM8.429,8.143h5.143A.86.86,0,0,1,14.429,9v6.857a.86.86,0,0,1-.857.857H8.429a.86.86,0,0,1-.857-.857V9A.86.86,0,0,1,8.429,8.143ZM14,3.857l-.609-.609a.865.865,0,0,0-.6-.249H9.209a.865.865,0,0,0-.6.249L8,3.857H5.857a.857.857,0,0,0,0,1.714H16.143a.857.857,0,1,0,0-1.714Z" transform="translate(1 1)"/></svg>